<svg xmlns="http://www.w3.org/2000/svg" width="143.286" height="32" viewBox="0 0 143.286 32">
  <g id="White" transform="translate(-0.005 -0.003)">
    <g id="Group_14" data-name="Group 14" transform="translate(32.135 5.349)">
      <path id="Path_41" data-name="Path 41" d="M90.029,16.89H88.08V32.212H97.8V30.307H90.029Z" transform="translate(-77.395 -14.027)" fill="#fff"/>
      <path id="Path_42" data-name="Path 42" d="M250.373,27.008l-1.3-1.128-3.729,4.288-3.694-4.254-.034-.034-1.3,1.128L244.2,31.48l-3.855,4.433-.029.039,1.3,1.128,3.729-4.288,3.694,4.254.034.034,1.3-1.128-3.884-4.472,3.855-4.433Z" transform="translate(-155.629 -18.647)" fill="#fff"/>
      <path id="Path_43" data-name="Path 43" d="M197.146,27.905,186.694,16.89h-.384V32.212h1.949V21.2l10.452,11.015h.384V16.89h-1.949Z" transform="translate(-127.874 -14.027)" fill="#fff"/>
      <rect id="Rectangle_66" data-name="Rectangle 66" width="1.842" height="10.709" transform="translate(96.699 7.476)" fill="#fff"/>
      <rect id="Rectangle_67" data-name="Rectangle 67" width="2.017" height="1.726" transform="translate(96.611 2.863)" fill="#fff"/>
      <path id="Path_44" data-name="Path 44" d="M222.7,26.03a5.528,5.528,0,0,0,.126,11.054,5.977,5.977,0,0,0,4.307-1.735l-.01-.01L225.808,34.2a4.445,4.445,0,0,1-2.985,1.147,3.569,3.569,0,0,1-3.6-3.34h8.7C227.879,28.193,225.7,26.03,222.7,26.03Zm-3.383,4.37a3.348,3.348,0,0,1,3.276-2.679,3.061,3.061,0,0,1,3.257,2.679Z" transform="translate(-143.809 -18.724)" fill="#fff"/>
      <path id="Path_45" data-name="Path 45" d="M277.519,30.814l-.914-.321c-1.293-.447-1.624-.963-1.624-1.628,0-.749.734-1.176,1.58-1.176a2.312,2.312,0,0,1,1.8.836l1.249-1.084a3.813,3.813,0,0,0-3.053-1.4c-2.027,0-3.476,1.24-3.476,2.849,0,1.283.69,2.465,2.649,3.169l.87.321c1.313.452,1.891.9,1.891,1.711s-.89,1.351-1.983,1.351a3.274,3.274,0,0,1-2.625-1.351l-1.317,1.142a4.975,4.975,0,0,0,3.9,1.857c2.426,0,3.942-1.351,3.942-3.063C280.411,32.442,279.41,31.475,277.519,30.814Z" transform="translate(-172.201 -18.729)" fill="#fff"/>
      <path id="Path_46" data-name="Path 46" d="M142.678,27.008l-1.3-1.128-3.729,4.288-3.7-4.254-.034-.034-1.3,1.128,3.889,4.472-3.855,4.433-.034.039,1.3,1.128,3.733-4.288,3.695,4.254.034.034,1.3-1.128-3.889-4.472,3.855-4.433Z" transform="translate(-100.283 -18.647)" fill="#fff"/>
      <rect id="Rectangle_68" data-name="Rectangle 68" width="1.842" height="10.709" transform="translate(44.344 7.476)" fill="#fff"/>
      <rect id="Rectangle_69" data-name="Rectangle 69" width="2.017" height="1.726" transform="translate(44.256 2.863)" fill="#fff"/>
      <path id="Path_47" data-name="Path 47" d="M115,26.03a5.528,5.528,0,0,0,.126,11.054,5.977,5.977,0,0,0,4.307-1.735l-.01-.01L118.108,34.2a4.445,4.445,0,0,1-2.985,1.147,3.569,3.569,0,0,1-3.6-3.34h8.7C120.183,28.193,118,26.03,115,26.03Zm-3.383,4.37a3.352,3.352,0,0,1,3.276-2.679,3.061,3.061,0,0,1,3.257,2.679Z" transform="translate(-88.464 -18.724)" fill="#fff"/>
      <path id="Path_48" data-name="Path 48" d="M169.819,30.814l-.914-.321c-1.293-.447-1.624-.963-1.624-1.628,0-.749.734-1.176,1.58-1.176a2.312,2.312,0,0,1,1.8.836l1.249-1.084a3.806,3.806,0,0,0-3.053-1.4c-2.027,0-3.476,1.24-3.476,2.849,0,1.283.69,2.465,2.649,3.169l.87.321c1.313.452,1.891.9,1.891,1.711s-.89,1.351-1.983,1.351a3.274,3.274,0,0,1-2.625-1.351l-1.317,1.142a4.975,4.975,0,0,0,3.9,1.857c2.426,0,3.942-1.351,3.942-3.063C172.716,32.442,171.715,31.475,169.819,30.814Z" transform="translate(-116.856 -18.729)" fill="#fff"/>
      <path id="Path_49" data-name="Path 49" d="M290.334,20.43a1.432,1.432,0,0,0,0,2.863,1.432,1.432,0,0,0,0-2.863Zm0,2.635a1.178,1.178,0,0,1-1.181-1.2,1.181,1.181,0,1,1,2.363,0A1.175,1.175,0,0,1,290.334,23.065Z" transform="translate(-180.598 -15.846)" fill="#fff"/>
      <path id="Path_50" data-name="Path 50" d="M291.862,22.132c0-.292-.209-.462-.574-.462h-.569v1.609h.267v-.671h.282l.369.671h.287l-.384-.71A.4.4,0,0,0,291.862,22.132Zm-.583.248h-.292v-.467h.282c.228,0,.331.068.331.224S291.508,22.38,291.279,22.38Z" transform="translate(-181.528 -16.483)" fill="#fff"/>
      <path id="Path_51" data-name="Path 51" d="M67.524,11a1.432,1.432,0,0,0,0,2.863,1.432,1.432,0,0,0,0-2.863Zm0,2.635a1.181,1.181,0,0,1-1.181-1.2,1.181,1.181,0,1,1,2.363,0A1.181,1.181,0,0,1,67.524,13.635Z" transform="translate(-66.1 -11)" fill="#fff"/>
      <path id="Path_52" data-name="Path 52" d="M69.052,12.7c0-.292-.209-.462-.574-.462H67.91v1.609h.267v-.671h.282l.369.671h.287l-.384-.71A.408.408,0,0,0,69.052,12.7Zm-.588.248h-.292v-.467h.282c.228,0,.331.068.331.224S68.693,12.95,68.464,12.95Z" transform="translate(-67.03 -11.637)" fill="#fff"/>
    </g>
    <g id="Group_15" data-name="Group 15" transform="translate(0.005 0.003)">
      <path id="Path_53" data-name="Path 53" d="M8.4,20.733a17.039,17.039,0,0,1,7.788-7.69c.384-.185.778-.355,1.172-.506a.031.031,0,0,0-.019-.058C5.612,14.448.581,29.021,8.412,35.258a.033.033,0,0,0,.049-.044C7.318,33.654,4.64,28.278,8.4,20.733Z" transform="translate(-2.386 -6.414)" fill="#fff"/>
      <path id="Path_54" data-name="Path 54" d="M15.079,31.512a18.2,18.2,0,0,1,0-5.765,17.775,17.775,0,0,1,5.065-9.81A16.119,16.119,0,0,1,21.7,14.6a.032.032,0,0,0-.034-.053c-6.13,2.737-9.664,9.577-9.212,15.8.248,2.849,1.366,8.089,6.825,9.124a.032.032,0,0,0,.024-.058C17.053,37.866,15.478,34.254,15.079,31.512Z" transform="translate(-6.38 -7.475)" fill="#fff"/>
      <path id="Path_55" data-name="Path 55" d="M2.261,13.764A15.275,15.275,0,0,1,16.12,7.96a.033.033,0,0,0,.015-.063c-4.2-1.225-8.556-.4-11.22,1.75A10.825,10.825,0,0,0,2.207,13.73C2.193,13.764,2.241,13.793,2.261,13.764Z" transform="translate(-1.135 -3.766)" fill="#fff"/>
      <path id="Path_56" data-name="Path 56" d="M38.085,14.828A16.153,16.153,0,0,0,11.708,3.7a.033.033,0,0,0,.039.053,11.678,11.678,0,0,1,6.694-.972,14.667,14.667,0,0,1,5.133,1.59c.413.219.812.452,1.2.71a17.115,17.115,0,0,1,4.511-1.288h0a.235.235,0,0,1,.258.146.228.228,0,0,1-.17.3,16.778,16.778,0,0,0-2.431.71.033.033,0,0,0,.015.063,16.449,16.449,0,0,1,3.32.35h0a.227.227,0,0,1,.185.194.23.23,0,0,1-.263.258,16.342,16.342,0,0,0-2.883-.17.035.035,0,0,0-.01.068c.452.136.894.3,1.332.472a16.041,16.041,0,0,1,2.358,1.2l.01,0a.218.218,0,0,1,.107.209.232.232,0,0,1-.34.185,15.429,15.429,0,0,0-2.329-1.05c-.34-.117-.681-.224-1.026-.321a.034.034,0,0,0-.024.063,14.174,14.174,0,0,1,1.609,1.172,15.746,15.746,0,0,1,1.872,1.862l0,0a.227.227,0,0,1,.039.233.23.23,0,0,1-.379.068,15.052,15.052,0,0,0-1.872-1.735,13.428,13.428,0,0,0-1.24-.86.035.035,0,0,0-.044.053c.122.126.243.258.36.394A14.318,14.318,0,0,1,29.32,9.807a14.485,14.485,0,0,1,1.142,2.382v0a.228.228,0,0,1-.044.233.231.231,0,0,1-.384-.068,13.689,13.689,0,0,0-1.162-2.27,14.244,14.244,0,0,0-1.556-2.022,14.019,14.019,0,0,0-1.9-1.706c-.194-.146-.486-.345-.6-.418-13.32,7.428-8.7,26.931.914,25.92A16.169,16.169,0,0,0,38.085,14.828Z" transform="translate(-6.013 -0.003)" fill="#fff"/>
      <path id="Path_57" data-name="Path 57" d="M3.152,17.684A16.458,16.458,0,0,1,14.858,10.4a.032.032,0,0,0,0-.063,13.843,13.843,0,0,0-4.254.316,14.6,14.6,0,0,0-4.691,1.964A14.423,14.423,0,0,0,2.19,16.079a.269.269,0,0,1-.029.039,11.072,11.072,0,0,0-1.828,9.27c.088.369.34,1.128.51,1.614a.033.033,0,0,0,.063-.015A14.057,14.057,0,0,1,3.152,17.684Z" transform="translate(-0.005 -5.289)" fill="#fff"/>
    </g>
  </g>
</svg>
